<svg width="461" height="315" viewBox="0 0 461 315" fill="none" xmlns="http://www.w3.org/2000/svg">
<path d="M142.432 128.145L121.533 139.139C121.533 139.139 120.233 135.803 119.256 139.518C112.507 134.969 101.123 130.116 101.123 130.116L97.5449 133.073C97.5449 133.073 111.531 145.585 118.281 148.39C128.201 146.116 145.522 140.884 145.522 140.884L142.432 128.145Z" fill="#B43F2C"/>
<path d="M171.625 191.689C171.625 191.689 173.007 204.732 177.968 207.689C175.772 198.893 175.04 191.841 175.04 191.841L171.625 191.689Z" fill="#FFC69C"/>
<path d="M116.33 89.5474C116.33 89.5474 123.324 75.4434 131.049 75.6707C138.774 75.898 141.62 89.1681 143.816 91.6702C146.011 94.2489 153.005 93.1112 155.119 96.0685C148.532 103.499 146.906 104.182 146.906 104.182L144.71 100.997L145.93 105.092L143.734 107.291L141.945 104.864L143.165 108.201L140.807 110.4L127.878 108.732L116.33 89.5474Z" fill="#3F6593"/>
<path d="M116.899 88.3351C116.899 88.3351 109.336 87.9558 110.149 92.8087C110.963 97.6615 111.532 101.15 109.499 102.06C107.466 102.97 108.117 109.111 108.117 109.111L112.101 109.87L113.646 105.776L112.996 110.249L116.33 110.78L116.492 107.822L117.062 111.159L123.404 112.448L122.266 88.5623L116.899 88.3351Z" fill="#3F6593"/>
<path d="M119.339 90.0786C119.339 90.0786 114.053 95.9932 115.842 102.439C117.631 108.884 123.649 121.775 123.649 121.775C123.649 121.775 133.732 119.121 137.147 117.453L140.888 126.173L150.971 123.519L132.35 91.2923C132.431 91.2163 122.673 89.548 119.339 90.0786Z" fill="#FFC69C"/>
<path d="M116.33 90.9878C116.33 90.9878 121.453 95.8413 126.495 96.9024C131.618 97.9642 124.137 95.0069 124.137 95.0069C124.137 95.0069 133.651 97.5849 136.904 97.2817C134.302 90.8365 132.757 87.5 132.757 87.5H124.625L116.33 90.9878Z" fill="#3F6593"/>
<path d="M133.488 98.6461C133.488 98.6461 135.44 92.8834 139.831 95.3855C144.222 97.8882 142.27 105.47 137.554 104.485" fill="#FFC69C"/>
<path d="M171.382 271.156L147.719 276.919L179.92 279.118L176.098 273.886L171.382 271.156Z" fill="#E25E44"/>
<path d="M132.92 238.02C132.92 238.02 163.413 263.12 165.203 266.153C166.992 269.186 164.634 270.323 170.488 272.75C172.277 274.115 173.172 275.252 173.172 275.252C173.172 275.252 176.424 275.555 178.213 274.418C165.203 254.248 138.856 222.248 138.856 222.248L132.92 238.02Z" fill="#080638"/>
<path d="M142.271 176.75L104.865 283.592L110.069 286.171C110.069 286.171 113.729 277.299 117.388 275.327C121.047 273.356 119.828 268.503 121.372 261.906C122.918 255.309 127.228 252.73 129.017 247.043C130.887 241.356 166.666 178.494 166.666 178.494L142.271 176.75Z" fill="#0B2751"/>
<path d="M156.094 120.79L148.45 118.742L140.969 126.174L141.701 166.287C141.701 166.287 137.147 168.789 140.481 172.581C137.391 172.808 140.481 175.235 140.481 175.235C140.481 175.235 138.041 176.6 140.481 178.343C142.92 180.163 158.045 182.135 166.421 180.846C174.797 179.481 174.797 172.581 174.797 172.581L156.094 120.79Z" fill="#E25E44"/>
<path d="M174.798 193.129L171.626 192.902C171.463 192.902 170.813 192.675 168.943 190.097C167.154 187.594 167.967 186.305 168.292 185.926L144.873 131.026L145.198 130.874L168.699 186.002L168.617 186.078C168.536 186.154 167.398 187.291 169.268 189.869C171.057 192.372 171.708 192.523 171.708 192.523L174.391 192.675L160.811 136.638L154.306 123.595L154.631 123.443L161.137 136.486L174.798 193.129Z" fill="#B43F2C"/>
<path d="M144.953 130.95L168.454 185.926C168.454 185.926 167.072 187.215 169.023 189.945C170.975 192.675 171.626 192.675 171.626 192.675L174.552 192.826L160.973 136.562L154.467 123.52" fill="#E25E44"/>
<path d="M160.972 136.713C159.59 134.665 158.452 132.466 157.394 130.343C156.337 128.144 155.28 125.945 154.467 123.67C155.85 125.717 156.988 127.916 158.045 130.04C159.102 132.163 160.159 134.362 160.972 136.713Z" fill="#B43F2C"/>
<path d="M144.953 130.949C147.067 135.499 149.1 140.049 151.052 144.599L156.988 158.323L162.843 172.124C164.713 176.75 166.665 181.299 168.454 186.001C166.34 181.451 164.307 176.902 162.355 172.351L156.419 158.627L150.645 144.826C148.694 140.2 146.742 135.651 144.953 130.949Z" fill="#B43F2C"/>
<path d="M140.48 175.234C141.781 175.689 143.083 175.992 144.384 176.296C145.685 176.599 146.986 176.903 148.287 177.13C150.889 177.585 153.573 177.812 156.337 177.964C154.955 178.192 153.654 178.268 152.272 178.192C150.889 178.192 149.506 178.04 148.206 177.812C146.823 177.585 145.522 177.282 144.221 176.827C142.92 176.447 141.701 175.917 140.48 175.234Z" fill="#B43F2C"/>
<path d="M144.547 173.338C146.011 173.642 147.393 173.869 148.857 174.096C150.321 174.324 151.703 174.552 153.167 174.779L161.787 175.992C160.323 176.068 158.859 176.068 157.395 175.917C155.931 175.841 154.468 175.689 153.085 175.461C150.077 175.006 147.231 174.4 144.547 173.338Z" fill="#B43F2C"/>
<path d="M119.338 139.443C119.663 139.595 119.907 139.823 120.07 140.05C120.232 140.278 120.395 140.581 120.476 140.884C120.639 141.491 120.557 142.097 120.232 142.629C120.07 142.325 119.988 142.097 119.907 141.794C119.825 141.491 119.745 141.264 119.663 141.036L119.338 139.443Z" fill="#A32D21"/>
<path d="M121.535 138.912C122.186 139.519 122.511 140.277 122.755 141.111C122.917 141.945 122.998 142.779 122.592 143.538L122.348 142.4L122.104 141.263C121.86 140.504 121.697 139.746 121.535 138.912Z" fill="#A32D21"/>
<path d="M104.863 283.592L75.5078 291.251H109.499L110.068 286.17L104.863 283.592Z" fill="#E25E44"/>
<path d="M124.867 112.827C124.867 112.827 128.77 109.187 130.641 105.699C135.113 111.311 133.162 120.865 124.867 112.827Z" fill="#080638"/>
<path d="M126.006 111.69L126.738 112.676L132.105 107.974C131.78 107.14 131.291 106.382 130.722 105.699C129.422 107.974 127.307 110.325 126.006 111.69Z" fill="white"/>
<path d="M121.454 105.471C121.697 106.153 121.535 106.76 121.21 106.836C120.885 106.911 120.397 106.532 120.153 105.85C119.908 105.167 120.071 104.561 120.397 104.485C120.803 104.409 121.291 104.864 121.454 105.471Z" fill="#080638"/>
<path d="M133.488 98.6473C133.732 97.8134 134.057 96.979 134.627 96.2965C135.196 95.614 135.928 94.9315 136.903 94.6282C137.879 94.325 138.936 94.5529 139.831 95.0075C140.644 95.4627 141.457 96.0692 141.945 96.903C142.921 98.4959 142.921 100.467 142.189 102.136C141.782 102.97 141.213 103.728 140.4 104.183C139.587 104.638 138.53 104.79 137.635 104.486C138.53 104.562 139.506 104.411 140.156 103.879C140.888 103.425 141.295 102.666 141.62 101.908C142.189 100.391 142.108 98.5713 141.213 97.2069C140.807 96.4484 140.156 95.9173 139.424 95.5386C138.692 95.0834 137.879 94.9315 137.066 95.0834C136.253 95.2354 135.521 95.7659 134.952 96.4484C134.302 97.1309 133.813 97.8894 133.488 98.6473Z" fill="#E09A69"/>
<path d="M122.021 102.287C122.021 105.624 121.696 108.96 121.289 112.221L120.72 111.993C122.184 110.628 123.729 109.339 125.355 108.05C124.054 109.567 122.671 111.008 121.289 112.448L120.639 113.131L120.72 112.221C120.883 108.884 121.289 105.548 122.021 102.287Z" fill="#E09A69"/>
<path d="M139.342 96.7508C138.773 96.6748 138.204 96.7508 137.716 96.9781C137.309 97.206 136.984 97.6606 136.822 98.1158C136.659 98.5704 136.496 99.1016 136.496 99.6321C136.415 100.163 136.415 100.694 136.415 101.224L135.927 100.921C136.171 100.846 136.496 100.694 136.822 100.618C136.984 100.618 137.147 100.542 137.309 100.542C137.472 100.542 137.716 100.618 137.879 100.77C138.123 101.149 138.041 101.452 137.879 101.68C137.797 101.907 137.635 102.21 137.472 102.362C137.553 102.135 137.635 101.832 137.635 101.604C137.716 101.376 137.635 101.073 137.553 100.997C137.472 100.921 137.228 100.997 136.984 101.073C136.74 101.149 136.496 101.3 136.252 101.376L135.765 101.604V101.149C135.765 100.618 135.683 100.011 135.765 99.4808C135.846 98.9496 135.927 98.3431 136.252 97.8125C136.496 97.2814 136.984 96.7508 137.635 96.5989C138.123 96.3716 138.773 96.4475 139.342 96.7508Z" fill="#E09A69"/>
<path d="M125.6 102.286C125.844 102.969 125.682 103.575 125.356 103.651C125.031 103.727 124.543 103.348 124.299 102.666C124.055 101.983 124.218 101.377 124.543 101.301C124.868 101.225 125.356 101.604 125.6 102.286Z" fill="#080638"/>
<path d="M120.397 101.075C120.397 101.075 116.9 99.7856 117.632 104.032L120.397 101.075Z" fill="#3F6593"/>
<path d="M122.916 99.7838C122.916 99.7838 121.208 95.3855 127.551 97.5844L122.916 99.7838Z" fill="#3F6593"/>
<path d="M148.449 118.741L147.392 116.846L140.969 126.173L148.449 118.741Z" fill="#B43F2C"/>
<path d="M103.4 126.324C103.4 126.324 103.074 129.509 103.563 131.102C104.05 132.618 101.773 132.542 100.716 130.647C99.7401 128.751 103.4 126.324 103.4 126.324Z" fill="#EFB38B"/>
<path d="M90.8767 127.16C90.8767 127.16 91.6086 123.974 92.5849 123.292C93.6421 122.609 106.896 117.074 109.011 115.709C109.906 116.695 109.417 118.742 108.197 119.501C107.059 120.335 98.8462 123.747 98.8462 123.747C98.8462 123.747 103.156 125.036 103.888 125.719C104.619 126.401 103.075 127.766 102.831 127.993C102.587 128.221 102.831 131.027 101.529 131.406C102.343 132.771 100.96 134.211 100.229 134.514C98.358 135.046 92.3405 134.287 90.7144 134.135C89.0877 134.06 90.8767 127.16 90.8767 127.16Z" fill="#FFC69C"/>
<path d="M102.831 127.993C101.611 127.917 100.472 127.69 99.3343 127.387C98.1957 127.083 97.0571 126.704 96 126.098C97.2201 126.098 98.358 126.401 99.4966 126.704C100.635 127.083 101.774 127.387 102.831 127.993Z" fill="#E09A69"/>
<path d="M101.529 131.404C100.391 131.556 99.2528 131.404 98.1142 131.252C96.9756 131.101 95.9184 130.873 94.8613 130.418C95.9999 130.266 97.1385 130.418 98.2771 130.57C99.3342 130.798 100.472 131.025 101.529 131.404Z" fill="#E09A69"/>
<path d="M98.8471 123.746C98.3589 123.973 97.9529 123.973 97.5462 123.898C97.1395 123.822 96.7329 123.67 96.3262 123.367C96.8143 123.139 97.221 123.139 97.6277 123.215C98.0337 123.291 98.4404 123.443 98.8471 123.746Z" fill="#E09A69"/>
<path d="M255.463 75.4434L303.115 249.394L197.646 271.081L147.799 76.9597L255.463 75.4434Z" fill="#6386B8"/>
<path d="M186.751 122.912L185.856 122.988L180.409 102.135L174.798 103.5L174.635 102.818L181.059 101.377L186.751 122.912Z" fill="#D9EAFF"/>
<path d="M208.055 114.267C208.706 116.693 208.624 118.589 207.811 119.954C206.998 121.395 205.534 122.153 203.42 122.229C201.306 122.38 199.435 121.774 197.809 120.409C196.264 119.12 195.125 117.224 194.475 114.798L192.849 108.58C192.198 106.153 192.279 104.257 193.174 102.817C193.987 101.376 195.532 100.694 197.646 100.618C199.76 100.542 201.631 101.149 203.176 102.513C204.721 103.803 205.778 105.698 206.428 108.049L208.055 114.267ZM205.616 108.201C205.046 106.078 204.07 104.485 202.77 103.272C201.387 102.059 199.76 101.527 197.891 101.527C195.939 101.603 194.638 102.286 193.906 103.575C193.174 104.864 193.174 106.532 193.662 108.656L195.288 114.798C195.857 116.921 196.834 118.589 198.216 119.802C199.598 121.015 201.224 121.622 203.176 121.471C205.046 121.395 206.348 120.636 207.079 119.347C207.73 118.058 207.811 116.315 207.242 114.267L205.616 108.201Z" fill="#D9EAFF"/>
<path d="M211.715 107.898L210.414 107.974L209.926 106.153L211.227 106.078L211.715 107.898ZM215.293 121.319L213.992 121.395L213.504 119.576L214.805 119.5L215.293 121.319Z" fill="#D9EAFF"/>
<path d="M222.124 109.946C223.913 109.87 225.214 109.415 225.946 108.505C226.759 107.595 226.921 106.533 226.596 105.32C226.19 103.955 225.458 102.818 224.401 101.984C223.263 101.15 221.88 100.695 220.172 100.771C218.627 100.846 217.407 101.301 216.594 102.211C215.781 103.121 215.537 104.334 215.944 105.851H215.293L215.212 105.775C214.724 104.107 214.968 102.742 215.863 101.68C216.838 100.619 218.139 100.088 219.928 100.012C221.799 99.9361 223.343 100.391 224.726 101.377C226.109 102.363 227.003 103.652 227.41 105.32C227.735 106.382 227.572 107.368 227.166 108.201C226.678 109.111 225.946 109.718 224.807 110.173C226.271 110.476 227.491 111.007 228.467 111.841C229.442 112.676 230.093 113.737 230.499 115.026C230.988 116.77 230.743 118.211 229.849 119.273C228.955 120.334 227.572 120.941 225.702 121.016C223.913 121.092 222.124 120.713 220.497 119.727C218.79 118.742 217.733 117.301 217.326 115.405V115.33H217.977C218.383 116.846 219.278 118.059 220.742 119.045C222.205 119.955 223.75 120.41 225.539 120.259C227.247 120.183 228.548 119.651 229.28 118.742C230.012 117.832 230.174 116.619 229.768 115.102C229.361 113.509 228.467 112.372 227.166 111.69C225.864 111.007 224.238 110.628 222.368 110.779L220.742 110.855L220.497 110.097L222.124 109.946Z" fill="#D9EAFF"/>
<path d="M245.869 112.524C246.519 114.799 246.438 116.619 245.706 117.984C244.974 119.348 243.673 120.107 241.64 120.183C239.689 120.259 237.981 119.728 236.436 118.439C234.973 117.149 233.915 115.405 233.264 113.054L231.638 107.14C230.988 104.865 231.069 102.97 231.801 101.68C232.532 100.315 233.915 99.633 235.867 99.557C237.818 99.4817 239.526 100.088 240.99 101.377C242.453 102.666 243.51 104.41 244.08 106.685L245.869 112.524ZM243.51 106.685C242.941 104.714 242.046 103.121 240.827 101.908C239.526 100.771 238.062 100.164 236.273 100.24C234.484 100.316 233.264 100.922 232.695 102.211C232.045 103.425 232.045 105.093 232.614 107.14L234.241 113.054C234.81 115.026 235.704 116.694 237.005 117.832C238.306 119.045 239.851 119.576 241.64 119.424C243.429 119.348 244.567 118.666 245.219 117.377C245.787 116.088 245.869 114.495 245.299 112.524L243.51 106.685Z" fill="#D9EAFF"/>
<path d="M266.929 178.57L192.605 187.593C190.166 187.896 187.726 186.304 187.157 184.029L184.148 172.503C183.579 170.228 185.042 168.257 187.482 167.953L262.05 160.447C264.083 160.219 266.197 161.736 266.767 163.782L269.613 174.323C270.182 176.446 268.962 178.266 266.929 178.57Z" fill="#7490C1"/>
<path d="M202.282 179.329L201.631 179.405L195.451 173.49L197.158 179.86L196.508 179.935L194.557 172.429L195.207 172.353L201.388 178.192L199.679 171.822L200.33 171.746L202.282 179.329Z" fill="#2F568E"/>
<path d="M206.349 179.026C205.617 179.102 204.966 178.95 204.316 178.495C203.747 178.04 203.34 177.433 203.096 176.6L203.015 176.296C202.771 175.538 202.852 174.855 203.178 174.249C203.503 173.718 204.072 173.339 204.722 173.263C205.454 173.187 206.023 173.339 206.511 173.718C207 174.097 207.325 174.628 207.569 175.386L207.732 175.841L203.747 176.296L203.828 176.448C203.991 177.054 204.316 177.585 204.722 177.964C205.129 178.343 205.698 178.495 206.268 178.419C206.593 178.343 206.918 178.268 207.162 178.116C207.406 177.964 207.65 177.813 207.812 177.585L208.219 177.964C208.057 178.192 207.812 178.419 207.569 178.571C207.162 178.874 206.837 178.95 206.349 179.026ZM204.966 173.794C204.479 173.87 204.153 174.021 203.909 174.4C203.665 174.779 203.584 175.235 203.665 175.765L207 175.386V175.235C206.837 174.779 206.593 174.325 206.268 174.097C205.861 173.87 205.454 173.794 204.966 173.794Z" fill="#2F568E"/>
<path d="M210.495 176.6L210.983 177.585V176.524L211.227 172.732L211.796 172.657L213.992 176.22L214.561 177.206V176.144V172.353L215.211 172.277L214.967 177.889L214.398 177.964L212.121 174.4L211.633 173.566V174.476L211.389 178.343L210.82 178.419L207.73 173.111L208.381 173.035L210.495 176.6Z" fill="#2F568E"/>
<path d="M223.995 175.993L225.133 169.32L225.864 169.244L227.816 176.448L227.166 176.524L225.539 170.457L224.482 176.827L224.075 176.903L219.685 170.988L221.311 177.282L220.66 177.358L218.709 170.078L219.522 170.003L223.995 175.993Z" fill="#2F568E"/>
<path d="M231.637 176.144C230.905 176.22 230.255 176.068 229.686 175.614C229.116 175.158 228.71 174.552 228.548 173.793L228.466 173.49C228.222 172.732 228.303 172.049 228.629 171.519C228.954 170.988 229.442 170.685 230.092 170.609C230.743 170.533 231.312 170.685 231.8 171.063C232.288 171.443 232.613 171.974 232.776 172.656L232.938 173.111L229.116 173.566L229.198 173.717C229.36 174.325 229.686 174.855 230.092 175.158C230.499 175.538 230.987 175.689 231.556 175.614C231.881 175.538 232.206 175.462 232.451 175.386C232.695 175.234 232.857 175.082 233.02 174.855L233.345 175.234C233.183 175.462 233.02 175.614 232.695 175.841C232.451 175.992 232.126 176.068 231.637 176.144ZM230.255 171.063C229.767 171.139 229.442 171.291 229.198 171.671C228.954 172.049 228.954 172.428 229.035 172.96L232.206 172.58V172.428C232.044 171.974 231.881 171.595 231.474 171.291C231.149 171.139 230.743 170.988 230.255 171.063Z" fill="#2F568E"/>
<path d="M237.736 173.946C237.655 173.718 237.492 173.49 237.248 173.338C237.004 173.187 236.597 173.035 236.028 173.035C235.377 172.96 234.808 172.884 234.483 172.657C234.076 172.429 233.833 172.125 233.751 171.746C233.67 171.367 233.751 170.988 233.995 170.685C234.239 170.381 234.727 170.154 235.297 170.078C235.866 170.003 236.434 170.078 236.841 170.381C237.248 170.609 237.573 170.988 237.655 171.443L237.086 171.519C237.004 171.216 236.841 170.988 236.516 170.836C236.191 170.685 235.865 170.609 235.377 170.609C234.971 170.685 234.646 170.76 234.483 170.988C234.32 171.216 234.239 171.443 234.32 171.671C234.402 171.898 234.565 172.125 234.727 172.277C234.971 172.429 235.377 172.505 235.947 172.581C236.597 172.657 237.166 172.808 237.573 172.96C237.98 173.187 238.223 173.49 238.305 173.87C238.386 174.324 238.305 174.703 238.061 175.007C237.736 175.31 237.329 175.538 236.76 175.614C236.109 175.689 235.54 175.614 235.052 175.311C234.565 175.007 234.32 174.703 234.239 174.249L234.808 174.173C234.971 174.552 235.134 174.779 235.54 174.931C235.865 175.083 236.272 175.083 236.679 175.083C237.086 175.007 237.411 174.931 237.655 174.703C237.736 174.4 237.817 174.173 237.736 173.946Z" fill="#2F568E"/>
<path d="M242.941 173.338C242.86 173.111 242.697 172.883 242.453 172.731C242.209 172.58 241.802 172.428 241.234 172.428C240.583 172.352 240.013 172.277 239.688 172.049C239.282 171.822 239.038 171.594 238.956 171.139C238.875 170.76 238.956 170.381 239.201 170.077C239.444 169.774 239.851 169.547 240.42 169.471C240.989 169.395 241.559 169.471 241.965 169.774C242.372 170.002 242.697 170.381 242.778 170.836L242.209 170.912C242.128 170.608 241.965 170.381 241.64 170.229C241.315 170.077 240.989 170.002 240.583 170.002C240.176 170.077 239.851 170.153 239.688 170.381C239.526 170.608 239.445 170.836 239.526 171.063C239.607 171.291 239.77 171.518 239.932 171.594C240.176 171.746 240.583 171.822 241.152 171.897C241.802 171.973 242.372 172.125 242.697 172.277C243.103 172.504 243.348 172.807 243.429 173.187C243.51 173.642 243.429 174.02 243.185 174.324C242.86 174.628 242.453 174.855 241.884 174.931C241.234 175.006 240.664 174.931 240.258 174.628C239.77 174.4 239.526 174.02 239.444 173.566L240.013 173.49C240.176 173.869 240.339 174.096 240.745 174.248C241.071 174.4 241.477 174.4 241.884 174.4C242.291 174.324 242.616 174.248 242.86 174.02C242.941 173.869 243.023 173.566 242.941 173.338Z" fill="#2F568E"/>
<path d="M248.553 174.096C248.471 173.944 248.39 173.792 248.309 173.641C248.227 173.489 248.227 173.337 248.146 173.262C248.065 173.565 247.821 173.868 247.577 174.02C247.333 174.248 246.926 174.399 246.52 174.399C246.032 174.475 245.544 174.399 245.218 174.096C244.893 173.868 244.649 173.489 244.486 173.034C244.324 172.579 244.486 172.124 244.812 171.821C245.137 171.518 245.625 171.29 246.276 171.214L247.577 171.062L247.414 170.38C247.333 170.001 247.089 169.698 246.845 169.546C246.52 169.394 246.194 169.319 245.707 169.319C245.3 169.394 244.975 169.47 244.812 169.698C244.649 169.925 244.568 170.153 244.649 170.456L244.161 170.608C243.999 170.229 244.08 169.849 244.406 169.546C244.649 169.243 245.137 169.015 245.707 168.94C246.275 168.864 246.764 168.94 247.251 169.243C247.658 169.47 247.983 169.925 248.146 170.456L248.878 173.034C248.959 173.186 248.959 173.413 249.04 173.565C249.122 173.716 249.203 173.868 249.285 174.096H248.553ZM246.52 173.868C247.007 173.792 247.333 173.641 247.577 173.413C247.821 173.186 247.983 172.883 248.065 172.503L247.821 171.518L246.52 171.67C246.032 171.745 245.707 171.897 245.463 172.124C245.218 172.351 245.137 172.655 245.218 172.959C245.3 173.262 245.463 173.489 245.707 173.641C245.869 173.868 246.194 173.944 246.52 173.868Z" fill="#2F568E"/>
<path d="M249.691 171.291C249.447 170.456 249.447 169.774 249.691 169.243C249.935 168.713 250.342 168.409 250.992 168.334C251.399 168.258 251.724 168.334 252.049 168.485C252.374 168.637 252.618 168.788 252.944 169.091L252.781 168.258L253.269 168.182L254.652 173.414C254.814 174.096 254.814 174.627 254.489 175.006C254.245 175.385 253.757 175.613 253.106 175.764C252.862 175.764 252.618 175.764 252.293 175.764C251.968 175.764 251.724 175.689 251.48 175.613V175.082C251.724 175.158 251.968 175.234 252.212 175.234C252.456 175.234 252.7 175.234 253.025 175.234C253.513 175.158 253.92 175.006 254.082 174.703C254.245 174.399 254.326 174.02 254.163 173.49L254.001 172.731C253.92 173.034 253.757 173.262 253.513 173.414C253.269 173.566 252.944 173.717 252.618 173.717C251.968 173.793 251.48 173.642 250.992 173.186C250.504 172.731 250.179 172.125 249.935 171.366L249.691 171.291ZM250.342 171.366C250.504 171.973 250.748 172.504 251.155 172.807C251.48 173.186 251.968 173.262 252.456 173.262C252.862 173.186 253.106 173.11 253.35 172.883C253.594 172.656 253.675 172.428 253.757 172.125L253.106 169.623C252.862 169.319 252.619 169.091 252.374 168.94C252.049 168.788 251.724 168.713 251.399 168.788C250.911 168.864 250.585 169.091 250.423 169.547C250.26 170.002 250.26 170.532 250.504 171.215L250.342 171.366Z" fill="#2F568E"/>
<path d="M258.067 173.11C257.416 173.186 256.766 173.034 256.278 172.579C255.709 172.124 255.383 171.594 255.139 170.835L255.058 170.608C254.814 169.849 254.895 169.243 255.22 168.712C255.546 168.181 255.952 167.878 256.603 167.802C257.253 167.727 257.741 167.878 258.23 168.257C258.717 168.636 258.961 169.167 259.205 169.849L259.287 170.305L255.709 170.684L255.79 170.835C255.952 171.442 256.196 171.897 256.603 172.276C257.009 172.655 257.498 172.807 257.985 172.731C258.311 172.731 258.555 172.579 258.798 172.504C259.042 172.352 259.205 172.2 259.368 171.973L259.693 172.352C259.53 172.579 259.368 172.731 259.124 172.883C258.798 172.959 258.473 173.034 258.067 173.11ZM256.684 168.181C256.278 168.257 255.952 168.409 255.709 168.788C255.546 169.167 255.465 169.546 255.546 170.077L258.473 169.774V169.622C258.311 169.167 258.148 168.788 257.823 168.56C257.498 168.257 257.172 168.181 256.684 168.181Z" fill="#2F568E"/>
<path d="M269.369 160.22C270.101 162.874 268.555 165.301 265.954 165.604C263.27 165.908 260.505 163.936 259.773 161.206C259.041 158.477 260.587 156.126 263.27 155.823C265.954 155.595 268.637 157.566 269.369 160.22Z" fill="#E25E44"/>
<path d="M265.466 163.025L264.409 163.101L263.922 159.309L263.027 159.385L262.945 158.55L264.897 158.172L265.466 163.025Z" fill="white"/>
<path d="M220.498 220.958L214.236 197.224L254.082 191.84L260.262 214.588L259.937 214.664L220.498 220.958ZM214.968 197.679L220.986 220.352L259.53 214.134L253.675 192.447L214.968 197.679Z" fill="#D9EAFF"/>
<path d="M237.738 206.399L214.48 197.755L214.725 197.224L237.575 205.793L253.676 191.992L254.082 192.371L237.738 206.399Z" fill="#D9EAFF"/>
<path d="M247.982 252.882C246.356 252.882 244.811 251.744 244.323 250.076C244.079 249.166 244.241 248.105 244.73 247.346C245.218 246.664 245.95 246.133 246.844 245.981C248.714 245.602 250.666 246.815 251.154 248.711C251.398 249.621 251.235 250.607 250.747 251.441C250.259 252.123 249.527 252.655 248.633 252.806C248.47 252.882 248.226 252.882 247.982 252.882ZM247.494 246.74C247.332 246.74 247.169 246.74 247.007 246.815C246.356 246.967 245.787 247.27 245.462 247.801C245.055 248.408 244.893 249.166 245.136 249.925C245.543 251.441 247.007 252.351 248.47 252.123C249.121 251.972 249.69 251.669 250.015 251.062C250.422 250.455 250.503 249.697 250.34 248.939C250.015 247.65 248.795 246.74 247.494 246.74Z" fill="#D9EAFF"/>
<path d="M258.392 250.608L256.766 244.466L262.865 243.328L264.491 249.395L258.392 250.608ZM257.741 244.996L258.961 249.622L263.434 248.712L262.214 244.087L257.741 244.996Z" fill="#D9EAFF"/>
<path d="M238.631 254.853L231.557 252.502L236.761 247.801L238.631 254.853ZM233.102 252.275L237.493 253.716L236.355 249.318L233.102 252.275Z" fill="#D9EAFF"/>
<path d="M151.216 63.5387L238.225 63.3867C244.73 63.3867 250.504 68.1642 251.887 74.7613L252.049 75.4438L147.719 76.8842L197.647 271.005L299.782 250.077L302.303 259.176C303.36 264.105 299.62 268.275 295.147 269.337L211.146 288.218C203.421 289.962 195.778 285.792 194.232 277.829L142.514 73.2444C141.62 68.1642 145.767 63.5387 151.216 63.5387Z" fill="#080638"/>
<path d="M147.799 64.146L151.702 62.7051L152.841 64.146L149.1 65.7383L147.799 64.146Z" fill="#080638"/>
<path d="M155.037 62.0977H241.395C247.901 62.0977 253.593 66.8752 254.976 73.3963L255.382 75.4438L147.718 76.9601L146.417 71.804C145.522 66.7232 149.588 62.0977 155.037 62.0977Z" fill="#0B2751"/>
<path d="M197.646 271.08L303.115 249.469L305.23 257.204C306.287 262.132 303.278 267.516 298.887 268.502L214.642 287.459C206.998 289.203 200.249 284.654 198.704 276.768L197.646 271.08Z" fill="#0B2751"/>
<path d="M249.285 270.095C249.935 272.749 252.456 274.568 254.895 273.962C257.335 273.431 258.799 270.853 258.148 268.199C257.498 265.545 255.058 263.801 252.619 264.331C250.179 264.863 248.716 267.441 249.285 270.095Z" fill="#2F568E"/>
<path d="M201.469 70.2126L219.684 70.0606C220.253 70.0606 220.578 69.5301 220.497 68.9989C220.416 68.6197 220.09 68.3164 219.684 68.3164L201.469 68.4683C200.9 68.4683 200.493 68.9989 200.655 69.5301C200.737 69.9087 201.062 70.2126 201.469 70.2126Z" fill="#2F568E"/>
<path d="M195.207 69.3769C195.37 70.0594 196.102 70.666 196.833 70.666C197.565 70.666 198.054 70.0594 197.81 69.3769C197.647 68.6944 196.915 68.0879 196.183 68.0879C195.533 68.1639 195.044 68.6944 195.207 69.3769Z" fill="#2F568E"/>
<path opacity="0.05" d="M201.875 62.0977H241.395C247.901 62.0977 253.593 66.8752 254.975 73.3963L305.23 257.128C306.287 262.057 303.278 267.441 298.887 268.427L278.395 273.053L201.875 62.0977Z" fill="white"/>
<path d="M275.875 113.357L283.356 120.182L286.202 118.514L284.494 108.504L275.875 113.357Z" fill="#E29F71"/>
<path d="M362.314 57.2456C362.314 57.2456 364.917 46.2505 377.196 51.331C389.556 56.4115 385.409 79.3118 382.806 86.0602C380.204 92.8092 381.261 102.743 382.075 104.259C378.903 101.302 377.928 97.814 377.928 97.814C377.928 97.814 377.358 107.823 378.822 110.932C372.804 107.748 370.771 100.468 371.097 93.2644C371.422 86.0602 369.633 75.3687 369.633 75.3687L362.314 57.2456Z" fill="#333333"/>
<path d="M377.032 65.4345C374.837 56.7901 366.786 55.7285 362.802 55.7285C362.395 56.5626 362.232 57.2451 362.232 57.2451L369.551 75.4441C369.551 75.4441 371.015 84.316 371.015 91.3677C373.373 87.2733 379.472 74.9889 377.032 65.4345Z" fill="#333333"/>
<path d="M364.104 57.3968C364.104 57.3968 366.787 55.2736 369.552 57.3968C372.317 59.52 371.992 62.25 370.528 63.615C369.064 64.904 364.104 57.3968 364.104 57.3968Z" fill="#269999"/>
<path d="M343.531 59.748C343.531 59.748 351.175 54.8949 363.373 56.3356C375.57 57.7764 373.782 76.5817 368.902 83.634C363.942 90.6857 350.931 92.5819 350.931 92.5819L343.531 59.748Z" fill="#333333"/>
<path d="M346.132 59.4441C346.132 59.4441 337.35 57.5484 338.326 63.0838C341.822 62.7046 342.961 62.7046 342.961 62.7046L346.132 59.4441Z" fill="#333333"/>
<path d="M346.133 59.4439C346.133 59.4439 339.709 58.1548 334.26 69.3014C328.812 80.5241 329.951 87.8037 329.951 87.8037L343.612 94.5527L337.513 108.581L327.023 110.628C327.023 110.628 323.933 111.159 321.168 115.026C325.071 120.107 329.381 121.244 329.381 121.244L369.39 123.974C369.39 123.974 371.179 120.713 365.08 117.073C358.981 113.434 348.166 107.974 348.166 107.974L356.134 83.5574L362.559 73.1692C362.559 73.2445 350.28 58.6856 346.133 59.4439Z" fill="#FFC69C"/>
<path d="M345.971 58.9121C345.971 58.9121 345.971 65.2814 347.597 68.3906C349.224 71.4999 352.233 75.5183 349.467 64.9781C353.534 72.2577 358.006 77.7931 360.445 78.6275C363.454 74.4572 365.243 71.0447 365.243 71.0447L359.144 63.4618L345.971 58.9121Z" fill="#333333"/>
<path d="M355.729 81.0551C355.729 81.0551 361.584 76.3536 363.373 80.524C365.162 84.6949 357.355 89.0926 353.777 85.7561" fill="#FFC69C"/>
<path d="M355.729 86.7416C355.323 86.8936 354.834 86.8176 354.509 86.6663C354.184 86.4384 353.859 86.1351 353.777 85.7559C354.266 85.8318 354.591 85.9078 354.834 86.0591C355.16 86.2111 355.404 86.3624 355.729 86.7416Z" fill="#E09A69"/>
<path d="M355.729 81.0546C356.054 80.4474 356.541 80.0688 357.029 79.7656C357.598 79.4617 358.168 79.2344 358.9 79.2344C358.412 79.6896 357.924 79.9928 357.436 80.3721C356.948 80.5994 356.379 80.9026 355.729 81.0546Z" fill="#E09A69"/>
<path d="M378.091 95.0078C378.336 96.2215 378.498 97.5105 378.498 98.7236C378.498 99.3301 378.498 99.9366 378.579 100.619C378.661 101.226 378.823 101.833 379.068 102.439C379.474 103.652 379.88 104.79 380.368 105.927C380.775 107.065 381.263 108.202 381.669 109.416H381.588C380.775 108.43 380.125 107.292 379.555 106.154C379.068 104.941 378.742 103.728 378.579 102.515C378.498 101.908 378.416 101.302 378.254 100.619C378.091 100.013 377.929 99.4061 377.847 98.7996C377.685 97.5105 377.685 96.2215 378.091 95.0078Z" fill="#595959"/>
<path d="M267.01 281.242L238.387 293.678L276.28 288.673L272.946 279.498L267.01 281.242Z" fill="#FFB500"/>
<path d="M368.088 278.815L365.323 291.327L351.174 298.607H375.407L378.66 277.678L370.853 275.555L368.088 278.815Z" fill="#FFB500"/>
<path d="M316.453 162.344C316.453 162.344 279.535 249.016 267.012 281.243C269.126 282.38 272.866 281.546 272.866 281.546C272.866 281.546 302.547 254.703 295.879 235.29L328.162 198.514L333.53 251.594L368.415 280.712L370.854 275.555C370.854 275.555 358.331 246.968 345.158 244.693C360.201 218.684 363.21 191.31 350.037 174.4C332.309 163.86 316.453 162.344 316.453 162.344Z" fill="#269999"/>
<path d="M321.657 114.42C321.657 114.42 330.439 118.363 344.345 120.486C358.169 122.609 369.634 123.52 369.634 123.52C369.634 123.52 369.959 131.709 360.689 143.311C351.419 154.837 346.377 159.083 346.377 159.083L345.076 163.026C345.076 163.026 349.63 164.846 345.402 165.604C350.769 170.76 352.395 172.884 349.142 171.974C352.72 174.4 353.37 177.282 353.37 177.282C353.37 177.282 326.942 179.102 316.534 162.268C315.558 159.538 314.582 156.202 317.022 158.477C317.347 153.926 319.299 138.989 319.299 138.989L316.534 135.046L298.888 152.107L282.787 120.335L286.69 117.15L301.49 136.335L321.657 114.42Z" fill="white"/>
<path d="M322.306 119.955C320.924 122.154 319.541 124.353 318.241 126.552C317.59 127.689 317.021 128.827 316.452 129.964L316.045 130.874C315.963 131.177 315.801 131.481 315.72 131.784C315.638 132.088 315.557 132.391 315.476 132.694C315.394 132.997 315.476 133.301 315.394 133.68C315.069 132.391 315.394 131.102 315.801 129.888C316.208 128.675 316.858 127.462 317.509 126.324C318.973 123.973 320.517 121.851 322.306 119.955Z" fill="#B1CBE5"/>
<path d="M354.916 127.537C354.916 127.537 341.824 149.072 339.546 151.044C337.432 150.134 337.026 150.361 338.164 152.484C335.481 150.361 316.778 130.57 316.778 130.57L310.842 134.134L336.05 165.527C336.05 165.527 344.181 161.66 346.377 159.006" fill="white"/>
<path d="M316.371 130.873C316.371 130.873 311.818 119.802 307.833 114.797C303.849 109.793 302.222 108.883 302.222 108.883C302.222 108.883 301.409 110.021 301.816 111.84C302.222 113.66 306.532 118.513 307.183 120.181C302.385 120.333 300.84 125.338 300.433 127.537C300.026 129.736 303.768 135.726 304.255 131.783C305.394 133.072 311.167 133.982 311.167 133.982L316.371 130.873Z" fill="#FFC69C"/>
<path d="M310.76 134.211C312.955 136.789 315.151 139.368 317.265 141.946C319.38 144.524 321.575 147.102 323.689 149.756C325.804 152.334 327.918 154.988 330.032 157.566C332.147 160.22 334.261 162.799 336.294 165.452L335.968 165.377C337.838 164.542 339.627 163.557 341.416 162.571C342.311 162.04 343.205 161.585 344.019 160.979C344.832 160.448 345.726 159.841 346.377 159.083C345.726 159.841 344.913 160.523 344.1 161.13C343.287 161.737 342.393 162.268 341.579 162.874C339.872 163.936 338.001 164.922 336.212 165.831L336.05 165.907L335.887 165.756C333.691 163.177 331.658 160.523 329.544 157.945C327.43 155.367 325.316 152.713 323.283 150.059C321.169 147.405 319.135 144.827 317.021 142.173C314.826 139.595 312.793 136.865 310.76 134.211Z" fill="#B1CBE5"/>
<path d="M354.916 127.537C352.558 131.631 350.199 135.651 347.76 139.594C346.54 141.565 345.32 143.537 344.019 145.508C343.369 146.494 342.718 147.48 342.068 148.465C341.742 148.921 341.417 149.451 341.011 149.906L340.441 150.589C340.279 150.816 340.035 151.044 339.791 151.271L339.628 151.423L339.384 151.347C339.059 151.195 338.734 151.119 338.49 150.968C338.327 150.892 338.165 150.892 338.083 150.892C337.92 150.892 337.92 150.892 338.002 150.816C338.002 150.74 338.002 150.892 338.002 151.044C338.002 151.195 338.083 151.347 338.165 151.423C338.246 151.726 338.408 152.029 338.571 152.257L339.466 154.001L338.002 152.712C336.05 150.968 334.342 149.148 332.472 147.328C330.683 145.508 328.894 143.688 327.187 141.792C323.69 138.077 320.193 134.361 316.859 130.57C320.437 134.21 324.015 137.849 327.593 141.489L332.96 146.949C334.749 148.769 336.538 150.589 338.408 152.257L337.84 152.712C337.677 152.409 337.514 152.105 337.351 151.802C337.27 151.65 337.188 151.499 337.188 151.271C337.188 151.119 337.026 150.892 337.27 150.513C337.351 150.361 337.595 150.21 337.758 150.21C337.92 150.21 338.002 150.21 338.165 150.21C338.408 150.21 338.571 150.285 338.734 150.361C339.059 150.437 339.384 150.589 339.709 150.74L339.303 150.816C339.466 150.589 339.709 150.437 339.872 150.21L340.441 149.527C340.766 149.072 341.092 148.617 341.498 148.086C342.149 147.1 342.799 146.191 343.45 145.205L347.354 139.366L354.916 127.537Z" fill="#B1CBE5"/>
<path d="M284.007 103.954C284.007 103.954 286.04 102.969 286.934 106.229C287.829 109.49 289.862 112.902 284.739 110.096C282.869 106.305 284.007 103.954 284.007 103.954Z" fill="#E29F71"/>
<path d="M284.168 133.757L273.109 80.7526L277.093 79.9941L288.641 133.377L284.168 133.757Z" fill="#0B2751"/>
<path d="M273.598 100.467C273.598 100.467 281.405 101.453 284.251 102.363C287.097 103.273 284.739 106.079 284.739 106.079C284.739 106.079 286.447 107.14 285.47 108.96C286.202 110.78 285.227 111.841 285.227 111.841C285.227 111.841 286.528 113.965 284.333 114.344C282.137 114.723 276.77 114.495 275.387 113.662C274.005 112.751 271.24 100.088 273.598 100.467Z" fill="#FFC69C"/>
<path d="M233.019 94.0221L313.523 83.1027L298.399 17.4355L218.545 40.0324L233.019 94.0221Z" fill="#080638"/>
<path d="M232.207 93.2628L312.712 82.3434L297.586 16.6758L217.732 39.2726L232.207 93.2628Z" fill="#269999"/>
<path d="M241.071 77.4898L237.168 51.5567L278.722 40.7891L285.064 68.7698L241.071 77.4898Z" fill="#FFB500"/>
<path d="M237.168 51.5567C240.99 52.9216 244.731 54.3623 248.471 55.8789C252.212 57.3196 255.952 58.8362 259.693 60.4286L258.961 60.5803C262.133 57.2439 265.385 53.9074 268.638 50.5709L273.598 45.6421C275.306 44.0497 276.933 42.3815 278.64 40.7891C277.176 42.5331 275.631 44.2772 274.086 46.0212L269.451 51.1776C266.28 54.5898 263.108 57.9263 259.937 61.3385L259.612 61.6419L259.205 61.4902C255.464 59.8978 251.805 58.3054 248.146 56.6372C244.406 55.0448 240.746 53.3766 237.168 51.5567Z" fill="#E88F00"/>
<path d="M280.51 49.7374C285.09 49.7374 288.804 45.8332 288.804 41.0171C288.804 36.2011 285.09 32.2969 280.51 32.2969C275.929 32.2969 272.215 36.2011 272.215 41.0171C272.215 45.8332 275.929 49.7374 280.51 49.7374Z" fill="#E25E44"/>
<path d="M281.73 44.8848L280.022 45.1881L279.697 38.5152L277.99 38.8185L277.908 37.6053L281.323 36.6953L281.73 44.8848Z" fill="white"/>
<path d="M340.359 73.0176C340.034 74.5339 339.709 75.9749 339.22 77.4158L339.14 77.7191L338.814 77.5672C337.838 77.1879 336.781 76.8087 335.805 76.4301L336.212 75.8989C337.351 77.1126 338.489 78.4016 339.465 79.6906C338.163 78.6289 336.862 77.4912 335.724 76.3541L334.586 75.2924L336.131 75.8229C337.106 76.2022 338.163 76.5814 339.14 76.9606L338.651 77.1879C339.058 75.8229 339.627 74.3826 340.359 73.0176Z" fill="#E09A69"/>
<path d="M336.213 81.6624C336.213 81.6624 346.866 81.1313 349.305 82.117C347.191 90.1551 338.734 90.7616 336.213 81.6624Z" fill="#080638"/>
<path d="M340.033 81.586V82.7237L348.49 84.4673C348.815 83.7848 349.141 83.027 349.385 82.1925C347.84 81.51 343.368 81.51 340.033 81.586Z" fill="white"/>
<path d="M361.583 81.5864C361.502 81.2831 361.34 81.0558 361.177 80.9039C361.014 80.7526 360.77 80.6766 360.526 80.6766C360.038 80.6766 359.469 80.9039 358.981 81.1312C358.493 81.3591 358.005 81.6624 357.518 81.9656C357.03 82.2689 356.542 82.5721 356.135 82.8754V82.4202C356.298 82.5721 356.542 82.7994 356.623 83.0274L356.705 83.2547C356.705 83.3306 356.705 83.406 356.705 83.4819C356.705 83.7099 356.542 83.8612 356.379 83.9372C356.135 84.0885 355.81 84.0885 355.566 84.1644C355.322 84.1644 355.078 84.1644 354.834 84.0885C355.078 84.0131 355.322 84.0131 355.566 83.9372C355.81 83.8612 355.973 83.7852 356.135 83.6339C356.216 83.482 356.216 83.4819 356.054 83.3306C355.973 83.1787 355.729 83.0274 355.566 82.9514L355.241 82.7241L355.566 82.4962C356.054 82.1169 356.461 81.8137 356.948 81.5104C357.192 81.3591 357.436 81.2072 357.68 81.0558C357.924 80.9039 358.168 80.7526 358.494 80.6766C359.062 80.4487 359.632 80.2974 360.363 80.3733C360.689 80.4487 361.014 80.6006 361.258 80.8279C361.583 80.9799 361.665 81.2831 361.583 81.5864Z" fill="#E09A69"/>
<path d="M342.88 74.6099C342.798 75.3684 343.205 75.9749 343.693 76.0509C344.18 76.1269 344.669 75.5197 344.75 74.7619C344.832 74.0034 344.425 73.3969 343.937 73.3209C343.449 73.2449 342.961 73.8514 342.88 74.6099Z" fill="#080638"/>
<path d="M336.618 73.5468C336.536 74.3053 336.943 74.9118 337.431 74.9878C337.919 75.0638 338.407 74.4573 338.488 73.6988C338.569 72.9403 338.163 72.3338 337.675 72.2578C337.106 72.2578 336.618 72.789 336.618 73.5468Z" fill="#080638"/>
<path d="M342.881 71.0463C342.881 71.0463 346.703 66.2687 348.817 73.1697L342.881 71.0463Z" fill="#333333"/>
<path d="M341.172 70.1355C341.172 70.1355 340.847 64.7515 336.293 70.3628L341.172 70.1355Z" fill="#333333"/>
<path d="M354.103 116.846C352.964 116.77 351.826 116.694 350.687 116.619L347.272 116.316C344.995 116.164 342.718 115.861 340.523 115.633L340.766 115.557C340.035 116.012 339.303 116.391 338.409 116.619C338.165 116.694 337.92 116.694 337.595 116.694C337.433 116.694 337.27 116.543 337.108 116.391C337.026 116.24 337.026 116.088 337.026 115.937C337.108 115.405 337.27 115.102 337.433 114.723L337.677 115.178L333.936 114.42C333.285 114.268 332.716 114.116 332.066 113.965C331.415 113.813 330.846 113.662 330.195 113.51C330.846 113.586 331.415 113.662 332.066 113.737C332.716 113.813 333.285 113.889 333.936 113.965L337.677 114.496L338.083 114.572L337.92 114.951C337.758 115.254 337.595 115.633 337.595 115.937C337.595 116.012 337.595 116.012 337.595 116.012C337.677 116.012 337.84 116.012 338.002 115.937C338.734 115.709 339.466 115.33 340.116 114.951L340.198 114.875H340.36C342.637 115.102 344.833 115.405 347.109 115.709L350.444 116.164C351.907 116.467 353.045 116.619 354.103 116.846Z" fill="#E09A69"/>
<path d="M306.206 121.471C305.555 121.851 304.905 122.078 304.173 122.23C303.522 122.381 302.79 122.533 302.059 122.457C302.709 122.078 303.359 121.851 304.091 121.699C304.742 121.547 305.474 121.395 306.206 121.471Z" fill="#E09A69"/>
<path d="M305.312 123.898C304.58 124.276 303.849 124.428 303.117 124.656C302.71 124.732 302.385 124.808 301.978 124.883C301.572 124.959 301.247 124.959 300.84 125.035C301.165 124.808 301.49 124.58 301.897 124.428C302.304 124.276 302.629 124.201 303.036 124.049C303.767 123.973 304.499 123.822 305.312 123.898Z" fill="#E09A69"/>
<path d="M304.904 126.096C304.091 126.324 303.359 126.476 302.545 126.627C301.733 126.779 301.001 126.93 300.188 127.082C300.756 126.476 301.651 126.248 302.464 126.096C303.277 125.944 304.091 125.944 304.904 126.096Z" fill="#E09A69"/>
<path d="M304.093 131.33C303.686 130.799 303.442 130.268 303.117 129.738C302.954 129.51 302.873 129.206 302.71 128.979C302.547 128.752 302.385 128.449 302.141 128.221C302.467 128.221 302.792 128.449 303.035 128.676C303.279 128.903 303.442 129.206 303.604 129.434C303.93 130.117 304.093 130.723 304.093 131.33Z" fill="#E09A69"/>
<path d="M303.603 127.842C303.766 128.145 303.766 128.448 303.684 128.676C303.603 128.979 303.521 129.206 303.359 129.51C303.115 129.206 303.115 128.903 303.115 128.6C303.196 128.296 303.359 128.069 303.603 127.842Z" fill="#E09A69"/>
<path d="M284.737 106.078C283.274 106.002 281.81 105.699 280.346 105.32C278.964 104.941 277.5 104.561 276.199 103.879C277.662 103.955 279.126 104.258 280.59 104.637C281.972 105.017 283.436 105.471 284.737 106.078Z" fill="#E09A69"/>
<path d="M285.551 108.959C284.087 108.959 282.624 108.656 281.241 108.429C279.858 108.125 278.395 107.746 277.094 107.215C278.558 107.215 280.021 107.518 281.404 107.746C282.786 108.049 284.168 108.353 285.551 108.959Z" fill="#E09A69"/>
<path d="M285.307 111.842C284.006 111.918 282.787 111.766 281.486 111.539C280.266 111.311 279.046 111.008 277.826 110.553C279.127 110.477 280.347 110.629 281.648 110.856C282.868 111.084 284.087 111.311 285.307 111.842Z" fill="#E09A69"/>
<path d="M321.088 187.518C322.389 189.262 323.609 191.082 324.747 192.902L326.536 195.632C327.105 196.541 327.756 197.451 328.325 198.286H327.674C328.813 196.845 329.952 195.404 331.252 194.039C331.903 193.357 332.553 192.75 333.285 192.143C334.017 191.537 334.83 191.006 335.725 190.703C334.912 191.082 334.18 191.689 333.529 192.371C332.878 193.054 332.228 193.66 331.659 194.343C330.521 195.708 329.382 197.148 328.325 198.589L328 199.043L327.674 198.589C327.024 197.679 326.454 196.769 325.804 195.859C325.235 194.949 324.665 194.039 324.096 193.054C323.202 191.309 322.064 189.414 321.088 187.518Z" fill="#0B2751" fill-opacity="0.1"/>
<path d="M349.467 172.732C347.434 172.732 345.483 172.505 343.45 172.201C341.498 171.898 339.466 171.443 337.595 170.912C335.643 170.381 333.773 169.699 331.903 168.941C330.032 168.182 328.325 167.197 326.617 166.135C327.512 166.514 328.406 166.969 329.3 167.348C329.789 167.5 330.195 167.728 330.683 167.879L332.066 168.41C333.936 169.092 335.806 169.699 337.758 170.23C339.709 170.76 341.58 171.216 343.531 171.671C344.507 171.898 345.483 172.049 346.459 172.277C347.516 172.429 348.492 172.581 349.467 172.732Z" fill="#B1CBE5"/>
<path d="M319.379 162.115C320.517 163.101 321.655 164.011 322.794 164.997C323.933 165.906 325.071 166.892 326.291 167.727C327.511 168.636 328.649 169.47 329.95 170.305C331.251 171.062 332.47 171.821 333.853 172.503C332.39 172.124 330.926 171.518 329.625 170.759C328.323 170.001 327.022 169.167 325.802 168.257C323.444 166.513 321.249 164.465 319.379 162.115Z" fill="#B1CBE5"/>
</svg>
